<svg xmlns="http://www.w3.org/2000/svg" viewBox="0 0 500 500" style="enable-background:new 0 0 500 500" xml:space="preserve"><path fill="#EEB842" d="M185.22 491.51c-18.53 0-36.17-8.9-47.18-23.81-3.52-4.76-35.38-48.1-67.11-99.79C22.67 289.32.19 233.77.19 193.09.19 91.3 83 8.49 184.79 8.49c46.03 0 90.15 17.1 124.23 48.15 27.23 24.81 46.22 56.81 54.95 91.97 38.93 6.32 74.29 26.62 99.61 57.8 27.27 33.61 39.82 75.82 35.35 118.86-4.48 43.04-25.45 81.77-59.05 109.04-16.97 13.78-40.45 24.27-73.87 33.02-21.85 5.72-48.29 10.7-78.59 14.82-49.87 6.77-94.33 9.05-99.23 9.29l-1.45.07h-1.52z"/><path fill="#FFF" d="M185.22 460.21c-8.68 0-16.85-4.12-22-11.1-3.46-4.69-34.68-47.18-65.61-97.57C53.12 279.09 31.5 227.26 31.5 193.09c0-84.53 68.77-153.3 153.3-153.3 79.37 0 144.85 60.63 152.55 138.01h.39c39.6 0 76.62 17.62 101.55 48.34 22 27.12 32.13 61.17 28.52 95.9-3.61 34.73-20.53 65.97-47.65 87.97-13.21 10.72-33.51 19.57-62.07 27.04-20.64 5.4-45.83 10.14-74.88 14.08-48.57 6.59-91.78 8.81-96.54 9.05l-.66.03h-.79z"/><path fill="#F49F3F" d="M310.73 193.09c0 59.4-91.5 192.26-118.22 229.78-3.55 4.99-10.95 5-14.52.03-26.9-37.49-119.15-170.39-119.15-229.81 0-69.56 56.39-125.95 125.95-125.95s125.94 56.4 125.94 125.95z"/><path fill="#FFF" d="m160.53 245.22-32.23-26.59c-8.02-6.61-9.15-18.48-2.54-26.49 6.61-8.02 18.48-9.15 26.49-2.54l7.77 6.41c7.07 5.83 17.31 5.72 24.25-.25l40.8-35.1c7.88-6.78 19.76-5.89 26.54 1.99 6.78 7.88 5.89 19.76-1.99 26.54l-64.84 55.78c-6.94 5.97-17.18 6.08-24.25.25z"/><path fill="#F07639" d="M419.96 246.28c-19.43-23.94-47.37-36.92-75.93-38.13-2.69-.11-5.05 1.82-5.49 4.48-5.57 33.92-27.06 81.17-65.27 143.63-16.11 26.33-32.09 50.23-44.06 67.58-2.6 3.77.38 8.86 4.94 8.43 54.68-5.09 141.22-16.69 170.69-40.61 44.33-35.97 51.09-101.06 15.12-145.38z"/></svg>