<svg xmlns="http://www.w3.org/2000/svg" xmlns:xlink="http://www.w3.org/1999/xlink" width="48" height="48" viewBox="0 0 48 48">
  <defs>
    <filter id="前面オブジェクトで型抜き_3">
      <feOffset dx="10" dy="5" input="SourceAlpha"/>
      <feGaussianBlur stdDeviation="49.5" result="blur"/>
      <feFlood flood-opacity="0.129" result="color"/>
      <feComposite operator="out" in="SourceGraphic" in2="blur"/>
      <feComposite operator="in" in="color"/>
      <feComposite operator="in" in2="SourceGraphic"/>
    </filter>
  </defs>
  <g id="グループ_313" data-name="グループ 313" transform="translate(-12277.755 -17693.256)">
    <g data-type="innerShadowGroup">
      <path id="前面オブジェクトで型抜き_3-2" data-name="前面オブジェクトで型抜き 3" d="M8.709,24a1.468,1.468,0,0,1-1.186-.609c-.929-1.295-2.728-3.881-4.345-6.655C0,11.285,0,9.325,0,8.681a8.681,8.681,0,1,1,17.362,0A6.547,6.547,0,0,1,17,10.8a30.414,30.414,0,0,1-2.785,5.935C12.6,19.51,10.819,22.094,9.9,23.387A1.466,1.466,0,0,1,8.709,24ZM8.681.91A7.78,7.78,0,0,0,.91,8.681c0,3.651,5.627,11.777,7.352,14.18a.55.55,0,0,0,.9,0c.912-1.28,2.678-3.837,4.266-6.583,2.01-3.476,3.029-6.031,3.029-7.6A7.78,7.78,0,0,0,8.681.91Z" transform="translate(12292.755 17705.256)" fill="#777"/>
      <g transform="matrix(1, 0, 0, 1, 12277.75, 17693.26)" filter="url(#前面オブジェクトで型抜き_3)">
        <path id="前面オブジェクトで型抜き_3-3" data-name="前面オブジェクトで型抜き 3" d="M8.709,24a1.468,1.468,0,0,1-1.186-.609c-.929-1.295-2.728-3.881-4.345-6.655C0,11.285,0,9.325,0,8.681a8.681,8.681,0,1,1,17.362,0A6.547,6.547,0,0,1,17,10.8a30.414,30.414,0,0,1-2.785,5.935C12.6,19.51,10.819,22.094,9.9,23.387A1.466,1.466,0,0,1,8.709,24ZM8.681.91A7.78,7.78,0,0,0,.91,8.681c0,3.651,5.627,11.777,7.352,14.18a.55.55,0,0,0,.9,0c.912-1.28,2.678-3.837,4.266-6.583,2.01-3.476,3.029-6.031,3.029-7.6A7.78,7.78,0,0,0,8.681.91Z" transform="translate(15 12)" fill="#fff"/>
      </g>
    </g>
    <path id="パス_146" data-name="パス 146" d="M97.462,124.4l-1.989-1.641a1.161,1.161,0,1,1,1.478-1.792l.48.4a1.161,1.161,0,0,0,1.5-.015l2.518-2.166a1.161,1.161,0,1,1,1.515,1.761l-4,3.442a1.161,1.161,0,0,1-1.5.015" transform="translate(12202.478 17592.748)" fill="#777"/>
  </g>
  <rect id="長方形_269" data-name="長方形 269" width="48" height="48" fill="none"/>
</svg>
