<svg xmlns="http://www.w3.org/2000/svg" width="16" height="16" viewBox="0 0 16 16"><path d="M2.4,16A2.4,2.4,0,0,1,0,13.6V4.8A2.4,2.4,0,0,1,2.4,2.4H7.2A.8.8,0,1,1,7.2,4H2.4a.8.8,0,0,0-.8.8v8.8a.8.8,0,0,0,.8.8h8.8a.8.8,0,0,0,.8-.8V8.8a.8.8,0,0,1,1.6,0v4.8A2.4,2.4,0,0,1,11.2,16Zm3.434-5.834a.8.8,0,0,1,0-1.132L13.269,1.6H10.4a.8.8,0,1,1,0-1.6h4.79A.8.8,0,0,1,15.3.006h.006l.012,0,.013,0h0l.015,0h0l.017,0h0l.036.009h0l.018.005h0l.016,0h0l.014,0,.005,0,.012,0,.008,0,.009,0,.013.005h0A.8.8,0,0,1,15.729.2l0,0,.01.01,0,0,.009.009.006.006,0,0,0,0,0,0,.01.011,0,0A.8.8,0,0,1,16,.81V5.6a.8.8,0,0,1-1.6,0V2.731L6.966,10.166a.8.8,0,0,1-1.131,0Z" fill="#777"/></svg>