<svg xmlns="http://www.w3.org/2000/svg" xmlns:xlink="http://www.w3.org/1999/xlink" width="48" height="48" viewBox="0 0 48 48">
  <defs>
    <filter id="前面オブジェクトで型抜き_5">
      <feOffset dx="10" dy="5" input="SourceAlpha"/>
      <feGaussianBlur stdDeviation="49.5" result="blur"/>
      <feFlood flood-opacity="0.129" result="color"/>
      <feComposite operator="out" in="SourceGraphic" in2="blur"/>
      <feComposite operator="in" in="color"/>
      <feComposite operator="in" in2="SourceGraphic"/>
    </filter>
  </defs>
  <g data-type="innerShadowGroup">
    <path id="前面オブジェクトで型抜き_5-2" data-name="前面オブジェクトで型抜き 5" d="M8.709,24a1.468,1.468,0,0,1-1.186-.609c-.929-1.295-2.728-3.881-4.345-6.655C0,11.285,0,9.325,0,8.681a8.681,8.681,0,0,1,17.361,0A6.547,6.547,0,0,1,17,10.8a30.413,30.413,0,0,1-2.785,5.935C12.6,19.51,10.819,22.094,9.9,23.387A1.466,1.466,0,0,1,8.709,24ZM8.681.908A7.78,7.78,0,0,0,.91,8.679c0,1.565,1.027,4.121,3.054,7.6,1.6,2.745,3.38,5.3,4.3,6.583a.55.55,0,0,0,.9,0c.912-1.28,2.678-3.837,4.266-6.583,2.01-3.476,3.029-6.031,3.029-7.6A7.781,7.781,0,0,0,8.681.908Z" transform="translate(15 12)" fill="#777"/>
    <g transform="matrix(1, 0, 0, 1, 0, 0)" filter="url(#前面オブジェクトで型抜き_5)">
      <path id="前面オブジェクトで型抜き_5-3" data-name="前面オブジェクトで型抜き 5" d="M8.709,24a1.468,1.468,0,0,1-1.186-.609c-.929-1.295-2.728-3.881-4.345-6.655C0,11.285,0,9.325,0,8.681a8.681,8.681,0,0,1,17.361,0A6.547,6.547,0,0,1,17,10.8a30.413,30.413,0,0,1-2.785,5.935C12.6,19.51,10.819,22.094,9.9,23.387A1.466,1.466,0,0,1,8.709,24ZM8.681.908A7.78,7.78,0,0,0,.91,8.679c0,1.565,1.027,4.121,3.054,7.6,1.6,2.745,3.38,5.3,4.3,6.583a.55.55,0,0,0,.9,0c.912-1.28,2.678-3.837,4.266-6.583,2.01-3.476,3.029-6.031,3.029-7.6A7.781,7.781,0,0,0,8.681.908Z" transform="translate(15 12)" fill="#fff"/>
    </g>
  </g>
  <rect id="長方形_268" data-name="長方形 268" width="48" height="48" fill="none"/>
</svg>
