<svg xmlns="http://www.w3.org/2000/svg" width="33.101" height="32" viewBox="0 0 33.101 32"><path d="M12.258,32a3.9,3.9,0,0,1-3.126-1.577c-.233-.315-2.344-3.187-4.446-6.611C1.489,18.6,0,14.925,0,12.23A12.232,12.232,0,0,1,24.1,9.283a10.734,10.734,0,0,1,5.028,18.928A12.746,12.746,0,0,1,24.235,30.4a44.732,44.732,0,0,1-5.207.982c-3.3.448-6.249.6-6.574.616l-.1,0Z" fill="#eeb842"/><path d="M38.532,56.2a1.812,1.812,0,0,1-1.458-.735c-.23-.311-2.3-3.126-4.347-6.464-2.947-4.8-4.38-8.234-4.38-10.5A10.157,10.157,0,0,1,48.61,37.491h.026A8.66,8.66,0,0,1,54.1,52.875a11.01,11.01,0,0,1-4.112,1.791,42.663,42.663,0,0,1-4.961.933c-3.218.437-6.08.584-6.4.6l-.044,0Z" transform="translate(-26.273 -26.274)" fill="#fff"/><path d="M69.813,61.469c0,3.935-6.062,12.737-7.832,15.223a.591.591,0,0,1-.962,0c-1.782-2.484-7.894-11.289-7.894-15.225a8.344,8.344,0,0,1,16.688,0" transform="translate(-49.239 -49.239)" fill="#f49f3f"/><path d="M112.419,139.589l-2.135-1.762a1.247,1.247,0,0,1,1.587-1.923l.515.425a1.247,1.247,0,0,0,1.607-.017l2.7-2.326a1.247,1.247,0,0,1,1.626,1.89l-4.3,3.7a1.247,1.247,0,0,1-1.607.017" transform="translate(-101.797 -123.906)" fill="#fff"/><path d="M219.251,183.358a6.83,6.83,0,0,0-5.03-2.526.355.355,0,0,0-.364.3c-.369,2.247-1.793,5.378-4.324,9.515-1.067,1.744-2.126,3.328-2.919,4.477a.357.357,0,0,0,.327.559c3.622-.337,9.356-1.106,11.309-2.69a6.847,6.847,0,0,0,1-9.632" transform="translate(-191.44 -167.604)" fill="#f07639"/></svg>
