<svg xmlns="http://www.w3.org/2000/svg" width="48" height="48" viewBox="0 0 48 48"><path d="M-11395.166-15423.333a.836.836,0,0,1-.834-.832.837.837,0,0,1,.834-.835h18.334a.835.835,0,0,1,.832.835.834.834,0,0,1-.832.832Zm0-5a.834.834,0,0,1-.834-.832.834.834,0,0,1,.834-.832h18.334a.832.832,0,0,1,.832.832.833.833,0,0,1-.832.832Zm0-5a.837.837,0,0,1-.834-.835.836.836,0,0,1,.834-.832h18.334a.835.835,0,0,1,.832.832.835.835,0,0,1-.832.835Z" transform="translate(11410 15453)" fill="#777"/><rect width="48" height="48" fill="none"/></svg>