<svg xmlns="http://www.w3.org/2000/svg" width="48" height="48" viewBox="0 0 48 48"><path d="M3.334,20A3.337,3.337,0,0,1,0,16.666V3.346c0-.011,0-.023,0-.034A3.337,3.337,0,0,1,3.334,0H21.11a3.337,3.337,0,0,1,3.333,3.311c0,.012,0,.023,0,.035V16.666A3.337,3.337,0,0,1,21.11,20ZM2.222,16.666a1.113,1.113,0,0,0,1.112,1.112H21.11a1.113,1.113,0,0,0,1.112-1.112V5.468l-9.363,6.554a1.111,1.111,0,0,1-1.275,0L2.222,5.468Zm10-6.912L22.1,2.837a1.113,1.113,0,0,0-.994-.615H3.334a1.113,1.113,0,0,0-.994.615Z" transform="translate(12 14)"/><rect width="48" height="48" fill="none"/></svg>