<svg xmlns="http://www.w3.org/2000/svg" width="48" height="48" viewBox="0 0 48 48"><path d="M2.864,17.182A2.867,2.867,0,0,1,0,14.318V2.874c0-.01,0-.02,0-.03A2.866,2.866,0,0,1,2.864,0H18.136A2.867,2.867,0,0,1,21,2.844c0,.01,0,.02,0,.03V14.318a2.867,2.867,0,0,1-2.864,2.864Zm-.955-2.864a.956.956,0,0,0,.955.955H18.136a.956.956,0,0,0,.955-.955V4.7l-8.043,5.63a.954.954,0,0,1-1.1,0L1.909,4.7ZM10.5,8.38l8.49-5.943a.956.956,0,0,0-.854-.528H2.864a.956.956,0,0,0-.854.528Z" transform="translate(14 15)"/><rect width="48" height="48" fill="none"/></svg>