<svg xmlns="http://www.w3.org/2000/svg" width="320" height="180" viewBox="0 0 320 180"><rect width="320" height="180" fill="#ddd"/><path d="M11.115,0C7.29,0,4.455,1.17,2.655,2.97A9.819,9.819,0,0,0,0,8.73l4.5.585A5.453,5.453,0,0,1,5.895,6.21C6.75,5.355,8.1,4.5,11.115,4.5c2.97,0,4.59.72,5.49,1.53A3.762,3.762,0,0,1,17.865,9c0,3.735-1.53,4.77-3.78,6.75s-5.22,4.86-5.22,10.125V27h4.5V25.875c0-3.735,1.4-4.77,3.645-6.75S22.365,14.265,22.365,9A8.645,8.645,0,0,0,19.71,2.655C17.775.9,14.895,0,11.115,0ZM8.865,31.5V36h4.5V31.5Z" transform="translate(148.817 72)" fill="#777"/></svg>