<svg xmlns="http://www.w3.org/2000/svg" width="21" height="24.818" viewBox="0 0 21 24.818"><path d="M16.185,7.7a8.625,8.625,0,0,1,1.427.267,6.08,6.08,0,0,1,4.634,5.957v7.613l.556.559.465.467H8.984l.465-.467L10,21.536V13.923a6.08,6.08,0,0,1,4.634-5.957A10.561,10.561,0,0,1,16.065,7.7m.06-4.324a1.824,1.824,0,0,0-1.853,1.861V6.1A8.043,8.043,0,0,0,8.1,13.923v6.825L5.625,23.23V24.47h21V23.23l-2.471-2.482V13.923A8.043,8.043,0,0,0,17.978,6.1V5.236a1.824,1.824,0,0,0-1.853-1.861ZM18.6,25.711H13.654a2.471,2.471,0,1,0,4.941,0Z" transform="translate(-5.625 -3.375)"/></svg>