<svg xmlns="http://www.w3.org/2000/svg" width="12" height="16.105" viewBox="0 0 12 16.105"><path d="M6.017,16.105a1.542,1.542,0,0,1-1.247-.64c-.58-.808-1.7-2.423-2.72-4.166C0,7.781,0,6.44,0,6A6,6,0,0,1,12,6c0,.44,0,1.779-2.034,5.295-1.006,1.74-2.123,3.357-2.7,4.166A1.541,1.541,0,0,1,6.017,16.105ZM6,.632A5.364,5.364,0,0,0,.632,6c0,.4,0,1.61,1.965,4.981C3.6,12.7,4.71,14.3,5.283,15.1a.9.9,0,0,0,1.469,0c.57-.8,1.674-2.4,2.667-4.116a18.8,18.8,0,0,0,1.722-3.67A4.048,4.048,0,0,0,11.368,6,5.364,5.364,0,0,0,6,.632Z" fill="#777"/></svg>